<svg width="360" height="488" viewBox="0 0 360 488" fill="none" xmlns="http://www.w3.org/2000/svg">
<path d="M180 0C180 0 311.799 161.82 349.837 265.539C349.865 265.617 349.894 265.694 349.922 265.771C350.075 266.191 350.227 266.61 350.377 267.027C350.446 267.22 350.515 267.412 350.584 267.604C350.715 267.972 350.846 268.34 350.975 268.706C351.033 268.873 351.092 269.04 351.15 269.206C351.274 269.559 351.395 269.911 351.517 270.263C351.59 270.475 351.663 270.687 351.735 270.899C351.834 271.187 351.931 271.475 352.027 271.762C352.105 271.993 352.184 272.224 352.261 272.454C352.601 273.475 352.932 274.489 353.252 275.496C353.286 275.603 353.32 275.71 353.354 275.816C353.472 276.192 353.588 276.566 353.704 276.939C353.762 277.127 353.82 277.313 353.877 277.5C353.963 277.782 354.049 278.063 354.134 278.344C354.196 278.55 354.258 278.755 354.319 278.96C354.436 279.352 354.551 279.743 354.665 280.133C354.694 280.233 354.724 280.333 354.753 280.433C355.049 281.455 355.334 282.47 355.606 283.477C355.637 283.591 355.668 283.705 355.698 283.818C355.79 284.158 355.879 284.496 355.968 284.834C356.029 285.066 356.089 285.297 356.148 285.528C356.226 285.829 356.303 286.129 356.378 286.429C356.409 286.551 356.439 286.672 356.47 286.794C356.56 287.158 356.649 287.52 356.736 287.882C356.773 288.035 356.81 288.188 356.847 288.341C357.067 289.264 357.275 290.18 357.474 291.089C357.504 291.229 357.534 291.368 357.564 291.508C357.643 291.873 357.72 292.237 357.795 292.6C357.817 292.707 357.839 292.814 357.86 292.921C357.928 293.254 357.995 293.586 358.06 293.917C358.09 294.074 358.12 294.23 358.15 294.387C358.302 295.178 358.445 295.963 358.579 296.742C358.604 296.887 358.63 297.032 358.654 297.177C358.725 297.596 358.792 298.013 358.857 298.429C358.885 298.605 358.911 298.781 358.938 298.957C358.978 299.221 359.017 299.485 359.055 299.748C359.083 299.942 359.109 300.135 359.136 300.328C359.169 300.565 359.201 300.801 359.232 301.037C359.258 301.229 359.283 301.42 359.307 301.611C359.341 301.881 359.373 302.149 359.404 302.417C359.421 302.562 359.439 302.706 359.455 302.851C359.485 303.112 359.512 303.372 359.539 303.632C359.558 303.812 359.577 303.991 359.595 304.17C359.635 304.579 359.674 304.986 359.708 305.392C359.717 305.5 359.725 305.608 359.733 305.716C359.759 306.035 359.784 306.352 359.806 306.668C359.816 306.811 359.825 306.954 359.834 307.097C359.85 307.346 359.866 307.595 359.88 307.843C359.89 308.028 359.899 308.213 359.908 308.397C359.92 308.639 359.93 308.881 359.939 309.121C359.946 309.296 359.954 309.47 359.96 309.644C359.969 309.911 359.975 310.178 359.98 310.443C359.983 310.557 359.986 310.671 359.988 310.784C359.995 311.192 360 311.597 360 312C360 403 284.5 488 179 488C73.5 488 4.44249e-09 403 0 312C0 311.597 0.00372219 311.192 0.0107422 310.784C0.0126947 310.671 0.0160623 310.557 0.0185547 310.443C0.0243702 310.178 0.0312961 309.911 0.0400391 309.644C0.0457138 309.47 0.0526682 309.296 0.0595703 309.121C0.0690722 308.881 0.0790028 308.639 0.0908203 308.397C0.0998251 308.213 0.109774 308.028 0.120117 307.843C0.133947 307.595 0.149805 307.346 0.166016 307.097C0.175278 306.954 0.183323 306.811 0.193359 306.668C0.215518 306.352 0.239711 306.035 0.265625 305.716C0.274398 305.608 0.282791 305.5 0.291992 305.392C0.326441 304.986 0.363878 304.579 0.404297 304.17C0.421974 303.991 0.442125 303.812 0.460938 303.632C0.48809 303.372 0.515416 303.112 0.544922 302.851C0.561218 302.706 0.577715 302.562 0.594727 302.417C0.626179 302.149 0.658498 301.881 0.692383 301.611C0.716406 301.42 0.741362 301.229 0.766602 301.037C0.797615 300.801 0.83044 300.565 0.863281 300.328C0.89001 300.135 0.916402 299.942 0.944336 299.748C0.982243 299.485 1.02141 299.221 1.06152 298.957C1.08818 298.781 1.11398 298.605 1.1416 298.429C1.20668 298.013 1.27528 297.596 1.3457 297.177C1.37 297.032 1.39499 296.887 1.41992 296.742C1.55377 295.963 1.69671 295.178 1.84863 294.387C1.87864 294.23 1.90875 294.074 1.93945 293.917C2.00427 293.586 2.07076 293.254 2.13867 292.921C2.16048 292.814 2.18198 292.707 2.2041 292.6C2.27898 292.237 2.35608 291.873 2.43457 291.508C2.46455 291.368 2.49489 291.229 2.52539 291.089C2.72357 290.18 2.93227 289.264 3.15234 288.341C3.18876 288.188 3.22568 288.035 3.2627 287.882C3.35003 287.52 3.43868 287.158 3.5293 286.794C3.5596 286.672 3.59042 286.551 3.62109 286.429C3.69644 286.129 3.77305 285.829 3.85059 285.528C3.91012 285.297 3.97043 285.066 4.03125 284.834C4.11983 284.496 4.21047 284.158 4.30176 283.818C4.33233 283.705 4.3617 283.59 4.39258 283.477C4.66552 282.47 4.95078 281.455 5.24707 280.433C5.27603 280.333 5.30578 280.233 5.33496 280.133C5.4486 279.743 5.56272 279.352 5.67969 278.96C5.74094 278.755 5.80405 278.55 5.86621 278.344C5.95098 278.063 6.0366 277.782 6.12305 277.5C6.18026 277.313 6.23697 277.126 6.29492 276.939C6.41064 276.566 6.52787 276.192 6.64648 275.816C6.68018 275.71 6.71315 275.603 6.74707 275.496C7.06721 274.489 7.39773 273.475 7.73828 272.454C7.81526 272.223 7.89465 271.993 7.97266 271.762C8.06936 271.475 8.1654 271.187 8.26367 270.899C8.3361 270.687 8.41012 270.475 8.4834 270.263C8.60451 269.911 8.7262 269.559 8.84961 269.206C8.90782 269.04 8.9657 268.873 9.02441 268.706C9.15347 268.34 9.28451 267.973 9.41602 267.604C9.48468 267.412 9.55372 267.22 9.62305 267.027C9.77337 266.61 9.92471 266.191 10.0781 265.771C10.1064 265.694 10.1337 265.616 10.1621 265.539C48.1999 161.82 180 0 180 0ZM180 347C172 347 165 354 165 362V421.5C165 430 172 437.5 180 437.5C188 437.5 195 431 195 422.5V362C195 354 188 347 180 347ZM249.5 347.5C241.5 347.5 235 354 235 362V407C235 415 241.5 421.5 249.5 421.5C257.5 421.5 264 415 264 407V362C264 354 257.5 347.5 249.5 347.5ZM110.5 347C102.5 347 96 353.5 96 361.5V406.5C96 414.5 102.5 421 110.5 421C118.5 421 125 414.5 125 406.5V361.5C125 353.5 118.5 347 110.5 347ZM180 89C139 130 64 254 64 264H105C113 264 125 276 125 284V299C125 307 135 317 143 317H217C225 317 235 307 235 299V284C235 276 247 264 255 264H295C295 254 221 130 180 89Z" fill="url(#paint0_linear_1381_766)"/>
<defs>
<linearGradient id="paint0_linear_1381_766" x1="180" y1="0" x2="180" y2="488" gradientUnits="userSpaceOnUse">
<stop stop-color="#40B6FF"/>
<stop offset="0.420801" stop-color="#35A9F6"/>
<stop offset="0.537679" stop-color="#208EE5"/>
</linearGradient>
</defs>
</svg>
