<svg width="360" height="224" viewBox="0 0 360 224" fill="none" xmlns="http://www.w3.org/2000/svg">
<path fill-rule="evenodd" clip-rule="evenodd" d="M0 48C4.44249e-09 139 73.5 224 179 224C284.5 224 360 139 360 48C360 34.4844 356.029 18.101 349.267 0H255C247 0 235 12 235 20V35C235 43 225 53 217 53H143C135 53 125 43 125 35V20C125 12 113 0 105 0H10.7325C3.97066 18.101 -6.59814e-10 34.4844 0 48ZM96 97.5C96 89.5 102.5 83 110.5 83C118.5 83 125 89.5 125 97.5V142.5C125 150.5 118.5 157 110.5 157C102.5 157 96 150.5 96 142.5V97.5ZM180 83C172 83 165 90 165 98V157.5C165 166 172 173.5 180 173.5C188 173.5 195 167 195 158.5V98C195 90 188 83 180 83ZM235 98C235 90 241.5 83.5 249.5 83.5C257.5 83.5 264 90 264 98V143C264 151 257.5 157.5 249.5 157.5C241.5 157.5 235 151 235 143V98Z" fill="url(#paint0_linear_1380_758)"/>
<defs>
<linearGradient id="paint0_linear_1380_758" x1="180" y1="0" x2="180" y2="224" gradientUnits="userSpaceOnUse">
<stop stop-color="#84CCFA"/>
<stop offset="0.255468" stop-color="#2CA0E9"/>
<stop offset="1" stop-color="#0095F2"/>
</linearGradient>
</defs>
</svg>
